# xmcd
# 
# Track frame offsets:
#     150
#     15924
#     34373
#     47862
#     64163
#     84674
#     102235
#     119701
#     137269
#     154492
#     176452
#     196127
# 
# Disc length: 2880
# 
# Revision: 0
# Processed by: cddbd v1.5.2PL0 Copyright (c) Steve Scherf et al.
# Submitted via: fre:ac v1.1beta1pre4
# 
DISCID=9f0b3e0c
DTITLE=Gioeli-Castronovo - Set The World On Fire
DYEAR=2018
DGENRE=Hard Rock
TTITLE0=Set The World On Fire
TTITLE1=Through
TTITLE2=Who I Am
TTITLE3=Fall Like An Angel
TTITLE4=It's All About You
TTITLE5=Need You Now
TTITLE6=Ride Of Your Life
TTITLE7=Mother
TTITLE8=Walk With Me
TTITLE9=Run For Your Life
TTITLE10=Remember Me
TTITLE11=Let Me Out
EXTD=
EXTT0=
EXTT1=
EXTT2=
EXTT3=
EXTT4=
EXTT5=
EXTT6=
EXTT7=
EXTT8=
EXTT9=
EXTT10=
EXTT11=
PLAYORDER=
